# xmcd
#
# Track frame offsets:
#	150
#	9332
#	18193
#	29313
#	40237
#	51831
#	66129
#	76418
#	88335
#	97952
#	108694
#	118227
#	128011
#	137801
#	148709
#	157329
#	166590
#	176015
#	185552
#	194164
#	203791
#	216668
#	226068
#	235344
#	244752
#	255457
#	265709
#	275871
#	286013
#	294572
#	304904
#	314613
#
# Disc length: 4329 seconds
#
# Revision: 0
# Processed by: cddbd v1.5.2PL0 Copyright (c) Steve Scherf et al.
# Submitted via: EasyCDDAExtractor 12.0.1.1
#
DISCID=e210e720
DTITLE=Johnny Cash - Complete Recording Sessions [Cd 04] 1958 Sessions
DYEAR=2005
DGENRE=Country
TTITLE0=Blue Train (M)
TTITLE1=Katy Too
TTITLE2=The Ways Of Woman In Love
TTITLE3=Fools Hall Of Fame (Outtake)
TTITLE4=Fools Hall Of Fame (Fs+m)
TTITLE5=Thanks A Lot
TTITLE6=The Ways Of Woman In Love (M)
TTITLE7=Thanks A Lot
TTITLE8=It's Just About Time
TTITLE9=I Just Thought You'd Like...
TTITLE10=I Forgot To Remember To Forget
TTITLE11=I Forgot To Remember To Forget
TTITLE12=It's Just About Time
TTITLE13=I Just Thought You'd Like...
TTITLE14=I Forgot To Remember To Forget
TTITLE15=Down The Street To 301
TTITLE16=Oh, What A Dream (Take 10)
TTITLE17=I'll Remember You (Take 6)
TTITLE18=Drink To Me
TTITLE19=What Do I Care
TTITLE20=Suppertime
TTITLE21=It Was Jesus
TTITLE22=Oh, What A Dream
TTITLE23=I'll Remember You
TTITLE24=Mama's Baby
TTITLE25=The Troubadour
TTITLE26=Run Softly, Blue River
TTITLE27=All Over Again
TTITLE28=That's All Over
TTITLE29=Frankie And Johnny
TTITLE30=Fools Hall Of Fame
TTITLE31=Walkin' The Blues
EXTD=
EXTT0=
EXTT1=
EXTT2=
EXTT3=
EXTT4=
EXTT5=
EXTT6=
EXTT7=
EXTT8=
EXTT9=
EXTT10=
EXTT11=
EXTT12=
EXTT13=
EXTT14=
EXTT15=
EXTT16=
EXTT17=
EXTT18=
EXTT19=
EXTT20=
EXTT21=
EXTT22=
EXTT23=
EXTT24=
EXTT25=
EXTT26=
EXTT27=
EXTT28=
EXTT29=
EXTT30=
EXTT31=
PLAYORDER=
